PathFileType  4	(X/Y/Z) C:\Users\wagnerel85475\Documents\Thesis\opencap-core\Data\3375ffbc-daeb-4a43-b4f7-ac9899cd4c71\MarkerData\PreAugmentation
DataRate	CameraRate	NumFrames	NumMarkers	Units	OrigDataRate	OrigDataStartFrame	OrigNumFrames
60.0	60.0	12	20	m	60.0	74	584
Frame#	Time	Neck			RShoulder			RElbow			RWrist			LShoulder			LElbow			LWrist			midHip			RHip			RKnee			RAnkle			LHip			LKnee			LAnkle			LBigToe			LSmallToe			LHeel			RBigToe			RSmallToe			RHeel			
		X1	Y1	Z1	X2	Y2	Z2	X3	Y3	Z3	X4	Y4	Z4	X5	Y5	Z5	X6	Y6	Z6	X7	Y7	Z7	X8	Y8	Z8	X9	Y9	Z9	X10	Y10	Z10	X11	Y11	Z11	X12	Y12	Z12	X13	Y13	Z13	X14	Y14	Z14	X15	Y15	Z15	X16	Y16	Z16	X17	Y17	Z17	X18	Y18	Z18	X19	Y19	Z19	X20	Y20	Z20	

74	1.2166667	0.2722100	1.8003800	-0.1336500	0.2755000	1.8098200	0.0533500	0.2239100	1.5053100	0.1367700	0.3044400	1.2163300	0.1929200	0.2561100	1.7966500	-0.3188500	0.2124700	1.5152600	-0.3878200	0.2814000	1.2191900	-0.4312000	0.2813700	1.2548100	-0.1241500	0.2957100	1.2611100	-0.0060900	0.2416100	0.7805200	-0.0319700	0.1814800	0.2554900	-0.0251000	0.2626500	1.2505000	-0.2381700	0.2096700	0.7783400	-0.2037900	0.1791800	0.2581700	-0.2175700	0.3910700	0.1923300	-0.2415800	0.3302500	0.1868300	-0.2804000	0.1148800	0.2180000	-0.2058500	0.4187200	0.1922500	-0.0181400	0.3801400	0.2022100	0.0110300	0.1200800	0.2134900	-0.0396400
75	1.2333333	0.2720500	1.8004600	-0.1334800	0.2822000	1.8091100	0.0554800	0.2240000	1.5053400	0.1368000	0.3044600	1.2163100	0.1929000	0.2565800	1.7964100	-0.3188400	0.2126800	1.5130000	-0.3876400	0.2814200	1.2192300	-0.4313700	0.2810200	1.2552400	-0.1241900	0.2951400	1.2635500	-0.0059000	0.2416000	0.7805900	-0.0318500	0.1814700	0.2554400	-0.0251000	0.2684600	1.2504800	-0.2404700	0.2098600	0.7796700	-0.2040000	0.1791000	0.2583200	-0.2175900	0.3968300	0.1959400	-0.2390100	0.3367700	0.1882800	-0.2777900	0.1146600	0.2180800	-0.2059800	0.4188000	0.1922300	-0.0181300	0.3797300	0.1995000	0.0107600	0.1201600	0.2136000	-0.0396800
76	1.2500000	0.2722300	1.8003900	-0.1336500	0.2755200	1.8098000	0.0533700	0.2239600	1.5053000	0.1367800	0.3044900	1.2164000	0.1929300	0.2561500	1.7966300	-0.3188600	0.2125500	1.5152900	-0.3878200	0.2813200	1.2194100	-0.4312500	0.2810700	1.2573700	-0.1241900	0.2955600	1.2656800	-0.0061200	0.2415500	0.7806400	-0.0319400	0.1814600	0.2555000	-0.0251000	0.2624400	1.2528500	-0.2382400	0.2095900	0.7783000	-0.2038300	0.1791900	0.2581700	-0.2175700	0.3974300	0.1958700	-0.2390400	0.3363100	0.1881100	-0.2779800	0.1148600	0.2180300	-0.2058600	0.4189700	0.1947700	-0.0179100	0.3801400	0.2022600	0.0110300	0.1200800	0.2134800	-0.0396500
77	1.2666667	0.2780300	1.7997600	-0.1360400	0.2822300	1.8091500	0.0554700	0.2239700	1.5053300	0.1367900	0.3044700	1.2163600	0.1929000	0.2566300	1.7964500	-0.3188600	0.2124900	1.5154500	-0.3877500	0.2754900	1.2169300	-0.4339800	0.2811200	1.2572500	-0.1242000	0.2953000	1.2656000	-0.0059100	0.2413200	0.7783100	-0.0319200	0.1814600	0.2554300	-0.0251000	0.2619700	1.2527200	-0.2380200	0.2033300	0.7789200	-0.2063800	0.1791000	0.2583400	-0.2176000	0.3967800	0.1959400	-0.2390400	0.3307400	0.1869400	-0.2801800	0.1147000	0.2180800	-0.2059800	0.4190400	0.1947500	-0.0179100	0.3802100	0.2023300	0.0109300	0.1201800	0.2135900	-0.0397000
78	1.2833333	0.2782000	1.7996700	-0.1362000	0.2822400	1.8090900	0.0554000	0.2239200	1.5052800	0.1367700	0.3045200	1.2163800	0.1929300	0.2561900	1.7966400	-0.3188800	0.2125000	1.5153300	-0.3878100	0.2753400	1.2194300	-0.4338500	0.2813400	1.2548000	-0.1241600	0.2958800	1.2631700	-0.0061000	0.2415100	0.7806800	-0.0319200	0.1814600	0.2554900	-0.0251000	0.2626300	1.2505000	-0.2381800	0.2029000	0.7774000	-0.2063700	0.1792000	0.2581300	-0.2175700	0.3974700	0.1958200	-0.2390200	0.3363800	0.1880000	-0.2779600	0.1148900	0.2178600	-0.2058500	0.4189800	0.1947800	-0.0178900	0.3801400	0.2022800	0.0110300	0.1200700	0.2134800	-0.0396600
79	1.3000000	0.2780300	1.7997400	-0.1360600	0.2754700	1.8098500	0.0534300	0.2240300	1.5053700	0.1368000	0.3044600	1.2164400	0.1928900	0.2566400	1.7964200	-0.3188700	0.2126200	1.5129600	-0.3876300	0.2753600	1.2217600	-0.4340500	0.2811000	1.2573000	-0.1242100	0.2955600	1.2631000	-0.0059000	0.2412500	0.7783100	-0.0319200	0.1814800	0.2553800	-0.0251000	0.2619600	1.2528300	-0.2380300	0.2169600	0.7901600	-0.2013400	0.1791100	0.2583300	-0.2175900	0.3908900	0.1945100	-0.2413900	0.3306200	0.1870200	-0.2802100	0.1147900	0.2180200	-0.2059400	0.4187400	0.1922200	-0.0181300	0.3796300	0.1995500	0.0107700	0.1202000	0.2135800	-0.0397000
80	1.3166667	0.2782100	1.7996400	-0.1361900	0.2822300	1.8090300	0.0554000	0.2240200	1.5053200	0.1367900	0.3045500	1.2182500	0.1929000	0.2562400	1.7966300	-0.3188800	0.2061900	1.5131800	-0.3853700	0.2817300	1.2197700	-0.4361400	0.2810800	1.2574000	-0.1241900	0.2955600	1.2656900	-0.0061300	0.2411400	0.7759100	-0.0321000	0.1814900	0.2554400	-0.0251000	0.2624300	1.2529200	-0.2382200	0.2163600	0.7883000	-0.2013400	0.1787100	0.2603700	-0.2177700	0.3914800	0.1945000	-0.2414000	0.3302400	0.1868600	-0.2803900	0.1149100	0.2180800	-0.2058400	0.4187300	0.1922400	-0.0181300	0.3796300	0.1995100	0.0108500	0.1201100	0.2134700	-0.0396600
81	1.3333333	0.2780500	1.7997200	-0.1360600	0.2754800	1.8098200	0.0534300	0.2240100	1.5054100	0.1368100	0.3044400	1.2163900	0.1928800	0.2566600	1.7964100	-0.3188600	0.2126500	1.5129700	-0.3876400	0.2818300	1.2219200	-0.4363300	0.2811400	1.2572900	-0.1242200	0.2952800	1.2656200	-0.0059000	0.2411700	0.7759100	-0.0320100	0.1814900	0.2553900	-0.0251000	0.2682100	1.2528500	-0.2405300	0.2169900	0.7900900	-0.2013200	0.1791000	0.2583500	-0.2176000	0.3909200	0.1945500	-0.2413700	0.3306600	0.1869900	-0.2802000	0.1147300	0.2181100	-0.2059600	0.4187700	0.1922200	-0.0181200	0.3796500	0.1995300	0.0107800	0.1202000	0.2135800	-0.0397000
82	1.3500000	0.2782000	1.7996300	-0.1361900	0.2755100	1.8097900	0.0533600	0.2240400	1.5053500	0.1368100	0.3045100	1.2163800	0.1929400	0.2562200	1.7966000	-0.3188700	0.2127300	1.5128100	-0.3877400	0.2817300	1.2218600	-0.4361500	0.2811100	1.2573700	-0.1242000	0.2958700	1.2631800	-0.0061200	0.2412100	0.7759100	-0.0320900	0.1812400	0.2532300	-0.0248400	0.2624500	1.2528700	-0.2382300	0.2166000	0.7909500	-0.2012700	0.1791700	0.2581800	-0.2175800	0.3914700	0.1944800	-0.2413700	0.3302700	0.1867800	-0.2803600	0.1149300	0.2179700	-0.2058400	0.4187200	0.1922200	-0.0181200	0.3796400	0.1994600	0.0108600	0.1201000	0.2134700	-0.0396500
83	1.3666667	0.2780500	1.7997000	-0.1360600	0.2822300	1.8091300	0.0554600	0.2240200	1.5053900	0.1368100	0.3044200	1.2164200	0.1928800	0.2566300	1.7964200	-0.3188700	0.2126800	1.5130100	-0.3876400	0.2817800	1.2218900	-0.4363600	0.2811400	1.2572800	-0.1242100	0.2955700	1.2631200	-0.0058800	0.2478800	0.7765300	-0.0298300	0.1812300	0.2531800	-0.0248400	0.2620200	1.2527500	-0.2380400	0.2098200	0.7796700	-0.2039600	0.1791100	0.2583300	-0.2176000	0.3904100	0.1923000	-0.2415800	0.3306100	0.1869800	-0.2802100	0.1147500	0.2180500	-0.2059600	0.4187600	0.1922200	-0.0181100	0.3796300	0.1994800	0.0108000	0.1202000	0.2135800	-0.0397000
84	1.3833333	0.2781900	1.7996400	-0.1361800	0.2822500	1.8090700	0.0554000	0.2239900	1.5053100	0.1367900	0.3045300	1.2163700	0.1929400	0.2562100	1.7966100	-0.3188700	0.2126800	1.5107000	-0.3878100	0.2817200	1.2219300	-0.4361400	0.2811300	1.2573500	-0.1241800	0.2959100	1.2631900	-0.0061000	0.2412700	0.7758500	-0.0320700	0.1812300	0.2532500	-0.0248400	0.2626800	1.2505000	-0.2381900	0.2093600	0.7780400	-0.2040000	0.1791400	0.2581600	-0.2175900	0.3855400	0.1930200	-0.2437400	0.3242100	0.1854900	-0.2827700	0.1150500	0.2178300	-0.2058000	0.4187300	0.1922400	-0.0181100	0.3796500	0.1994700	0.0108500	0.1200900	0.2134800	-0.0396500
85	1.4000000	0.2781800	1.8014800	-0.1359600	0.2879200	1.8083700	0.0527500	0.2239600	1.5054200	0.1368000	0.3044700	1.2182800	0.1928400	0.2566400	1.7964400	-0.3188800	0.2127100	1.5130200	-0.3876400	0.2818100	1.2219000	-0.4363600	0.2873700	1.2593800	-0.1268200	0.3015100	1.2632000	-0.0086000	0.2413000	0.7758000	-0.0320500	0.1814800	0.2554000	-0.0251000	0.2623800	1.2526700	-0.2380200	0.2097400	0.7774000	-0.2040500	0.1791200	0.2583000	-0.2176100	0.3905100	0.1923600	-0.2463400	0.3245600	0.1857600	-0.2826200	0.1148900	0.2179400	-0.2059300	0.4187400	0.1922700	-0.0181100	0.3795900	0.1995600	0.0108000	0.1202000	0.2135600	-0.0397000
